<svg width="74.14" height="152.601" viewBox="0 0 74.14 152.601" xmlns="http://www.w3.org/2000/svg"><g id="svgGroup" stroke-linecap="round" fill-rule="evenodd" font-size="9pt" stroke="#000" stroke-width="0.5mm" fill="var(--second-background)" style="stroke:#000;stroke-width:0.5mm;fill:var(--second-background)"><path d="M 40.9 97.201 L 62.4 31.601 A 71.748 71.748 0 0 0 63.773 26.94 Q 65.07 21.864 65 18.301 A 15.316 15.316 0 0 0 64.707 15.51 Q 64.386 13.952 63.716 12.748 A 7.22 7.22 0 0 0 62.15 10.801 Q 59.957 8.886 56.141 8.499 A 20.224 20.224 0 0 0 54.1 8.401 Q 49.4 8.401 45.15 10.301 A 24.633 24.633 0 0 0 38.287 14.927 A 28.535 28.535 0 0 0 37.4 15.801 A 35.534 35.534 0 0 0 32.656 21.932 A 41.777 41.777 0 0 0 31.3 24.301 A 42.218 42.218 0 0 0 28.292 31.605 A 50.998 50.998 0 0 0 27.3 35.301 A 56.173 56.173 0 0 0 25.949 45.675 A 64.204 64.204 0 0 0 25.9 48.201 Q 25.9 52.701 26.45 57.201 Q 27 61.701 28.15 66.001 A 58.787 58.787 0 0 0 30.447 72.901 A 52.967 52.967 0 0 0 30.95 74.101 A 44.396 44.396 0 0 0 33.431 78.995 A 38.232 38.232 0 0 0 34.7 81.001 A 4.76 4.76 0 0 1 35.094 81.68 Q 35.391 82.318 35.391 82.913 A 2.365 2.365 0 0 1 35.15 83.951 Q 34.5 85.301 33.3 86.201 A 12.82 12.82 0 0 1 32.417 86.729 Q 31.162 87.408 30.319 87.408 A 1.946 1.946 0 0 1 30.15 87.401 A 2.2 2.2 0 0 1 29.189 87.067 Q 28.556 86.68 27.939 85.853 A 7.841 7.841 0 0 1 27.9 85.801 Q 25.2 81.701 23.15 77.201 Q 21.1 72.701 19.6 67.851 Q 18.1 63.001 17.35 58.051 Q 16.6 53.101 16.6 48.501 A 62.991 62.991 0 0 1 17.652 36.822 A 55.667 55.667 0 0 1 18.55 32.851 A 57.389 57.389 0 0 1 21.94 23.382 A 50.122 50.122 0 0 1 23.95 19.501 A 43.838 43.838 0 0 1 30.274 10.986 A 39.975 39.975 0 0 1 32.15 9.151 Q 36.9 4.801 42.6 2.401 Q 48.3 0.001 54.6 0.001 Q 60.665 0.001 64.815 1.915 A 14.795 14.795 0 0 1 67.95 3.851 A 14.4 14.4 0 0 1 72.546 10.637 A 21.359 21.359 0 0 1 73.5 15.151 A 26.119 26.119 0 0 1 73.643 17.613 Q 73.727 24.366 70.7 33.701 L 51.9 91.401 A 434.608 434.608 0 0 1 58.955 87.687 A 477.378 477.378 0 0 1 60 87.151 A 525.847 525.847 0 0 1 68.139 83.075 A 574.408 574.408 0 0 1 68.7 82.801 A 5.157 5.157 0 0 1 69.469 82.557 Q 69.907 82.458 70.316 82.458 A 3.061 3.061 0 0 1 71.4 82.651 A 2.845 2.845 0 0 1 72.351 83.263 Q 72.683 83.576 72.987 84.019 A 7.449 7.449 0 0 1 73.5 84.901 Q 74.3 86.601 74.1 87.901 A 2.284 2.284 0 0 1 72.985 89.549 A 3.582 3.582 0 0 1 72.5 89.801 Q 65.6 93.201 59.55 96.251 Q 53.5 99.301 48.3 102.101 L 40.1 127.301 A 69.577 69.577 0 0 1 37.552 134.068 Q 36.09 137.385 34.395 140.119 A 39.406 39.406 0 0 1 33.6 141.351 Q 29.9 146.852 25.347 149.651 A 20.68 20.68 0 0 1 25.1 149.801 A 20.037 20.037 0 0 1 15.006 152.597 A 23.791 23.791 0 0 1 14.6 152.601 Q 10.3 152.601 7 150.851 Q 3.7 149.101 1.85 146.001 A 13.151 13.151 0 0 1 0.065 140.369 A 16.28 16.28 0 0 1 0 138.901 A 22.716 22.716 0 0 1 1.684 130.402 A 26.546 26.546 0 0 1 2.2 129.201 Q 4.162 124.92 8.191 120.481 A 52.843 52.843 0 0 1 9.2 119.401 Q 12.931 115.514 18.506 111.325 A 124.207 124.207 0 0 1 21.85 108.901 A 162.964 162.964 0 0 1 28.209 104.677 Q 31.766 102.426 35.834 100.068 A 296.205 296.205 0 0 1 40.9 97.201 Z M 31.8 125.001 L 37.2 108.301 Q 29.68 112.842 24.323 116.857 A 87.2 87.2 0 0 0 20.9 119.551 A 61.152 61.152 0 0 0 17.039 123.026 Q 13.738 126.282 11.9 129.301 A 21.131 21.131 0 0 0 10.036 133.146 A 15.204 15.204 0 0 0 9.1 138.301 A 7.761 7.761 0 0 0 9.314 140.178 A 5.143 5.143 0 0 0 10.95 142.901 Q 12.8 144.501 15.3 144.501 A 10.391 10.391 0 0 0 20.896 142.846 A 13.088 13.088 0 0 0 21.7 142.301 Q 24.7 140.101 27.25 135.751 Q 29.8 131.401 31.8 125.001 Z"/></g></svg>